<?xml version="1.0" encoding="UTF-8"?>
<svg xmlns="http://www.w3.org/2000/svg" id="Layer_1" data-name="Layer 1" viewBox="0 0 512 512" width="512" height="512"><path d="M104.217,349.422a66.658,66.658,0,1,0,66.657,66.658A66.733,66.733,0,0,0,104.217,349.422Zm0,121.315a54.658,54.658,0,1,1,54.657-54.657A54.719,54.719,0,0,1,104.217,470.737Z"/><path d="M109.725,393h8.162a6,6,0,0,0,0-12h-8.162a34.862,34.862,0,0,0-32.412,22H70.02a6,6,0,1,0,0,12h4.755c-.011,1-.028.621-.028,1s.017,1,.028,1H70.02a6,6,0,1,0,0,12h7.293a34.863,34.863,0,0,0,32.412,22h8.162a6,6,0,0,0,0-12h-8.162a22.963,22.963,0,0,1-18.84-10h22.044a6,6,0,0,0,0-12H86.775c-.017,0-.028-.621-.028-1s.011,0,.028-1h26.154a6,6,0,0,0,0-12H90.884A22.965,22.965,0,0,1,109.725,393Z"/><path d="M467,284.146v-47.6A35.558,35.558,0,0,0,431.7,201H421V109.709a6.11,6.11,0,0,0-2.494-4.786,5.625,5.625,0,0,0-5.076-.986L381,113.178V31.658A27.059,27.059,0,0,0,354,5c-.133,0-.324,0-.457,0L204.779,7.158a26.715,26.715,0,0,0-25.63,21.223A26.731,26.731,0,0,0,158,54.472v122.01L75.727,201.247l-.155.249A6.21,6.21,0,0,0,71,207.259V330.822A91.489,91.489,0,1,0,170.587,479H431.7c19.455,0,35.3-16.2,35.3-35.653v-47.6a35.408,35.408,0,0,0,32-35.1V319.25A35.408,35.408,0,0,0,467,284.146Zm-86-158.5,28-8V201H381ZM190,33.814a14.928,14.928,0,0,1,14.685-14.657L353.543,17a15.294,15.294,0,0,1,10.8,4.216A14.847,14.847,0,0,1,369,31.658V201h-9V54.463a6.129,6.129,0,0,0-1.822-4.177L336.423,27.873A6.2,6.2,0,0,0,332.052,26H226.271a6.048,6.048,0,0,0-4.308,1.875l-21.137,21.7a6.19,6.19,0,0,0-1.826,4.2V201h-9Zm89.506,74.276a66.982,66.982,0,0,0-67.017,66.886A65.51,65.51,0,0,0,217.8,201H211V56.205L228.812,38h100.7L348,56.9V201h-6.788a65.526,65.526,0,0,0,5.31-26.024A66.981,66.981,0,0,0,279.506,108.09Zm55.016,66.854A54.524,54.524,0,0,1,327.914,201H231.1a54.4,54.4,0,0,1-6.609-26.024,55.017,55.017,0,0,1,110.033-.032ZM170,54.472c0-5.908,3-11.043,8-13.354V201h-8ZM158,189.014V201H117.185Zm6.419,278.743-2.151-2.131a6.005,6.005,0,0,0-8.485,8.5l2.042,2.154A77.74,77.74,0,0,1,110,495.253v-3.076a6,6,0,0,0-12,0v3.076a79.832,79.832,0,0,1-45.609-18.971l2.2-2.151a5.985,5.985,0,1,0-8.444-8.485l-2.144,2.112A80.266,80.266,0,0,1,25.043,422h3.076a6,6,0,1,0,0-12H25.043a80.029,80.029,0,0,1,18.972-45.678l2.151,2.172a5.993,5.993,0,1,0,8.484-8.468l-2.259-2.15A79.83,79.83,0,0,1,98,336.906v3.076a6,6,0,0,0,12,0v-3.076a77.732,77.732,0,0,1,45.825,18.971l-2.1,2.151a6.017,6.017,0,0,0,8.532,8.486l2.155-2.191A80.049,80.049,0,0,1,183.39,410h-3.077a6,6,0,0,0,0,12h3.077A80.274,80.274,0,0,1,164.419,467.757ZM455,443.347C455,456.185,444.541,467,431.7,467H180.2A91.494,91.494,0,0,0,83,327.068V213H431.73A23.52,23.52,0,0,1,455,236.542V284H400.486A35.468,35.468,0,0,0,365,319.25v41.389A35.564,35.564,0,0,0,400.486,396H455Zm32-82.63A23.283,23.283,0,0,1,463.717,384H400.283A23.283,23.283,0,0,1,377,360.717V319.283A23.283,23.283,0,0,1,400.283,296h63.434A23.283,23.283,0,0,1,487,319.283Z"/><path d="M421.345,319h-5.651c-11.382,0-20.641,9.618-20.641,21s9.259,21,20.641,21h5.651c11.381,0,20.64-9.618,20.64-21S432.726,319,421.345,319Zm0,30h-5.651a9.007,9.007,0,0,1,0-18h5.651a9.007,9.007,0,0,1,0,18Z"/><path d="M279.506,42.4a27.062,27.062,0,1,0,27.062,27.062A27.094,27.094,0,0,0,279.506,42.4Zm0,42.124a15.062,15.062,0,1,1,15.062-15.062A15.08,15.08,0,0,1,279.506,84.527Z"/><path d="M100.577,233H97.592a6,6,0,1,0,0,12h2.985a6,6,0,0,0,0-12Z"/><path d="M206.555,233H119.887a6,6,0,0,0,0,12h86.668a6,6,0,0,0,0-12Z"/><path d="M293,149.753v-8.294a6,6,0,0,0-12,0v5.756c-1-.012-.621-.029-1-.029s-1,.017-1,.029v-5.756a6,6,0,0,0-12,0v8.294a34.86,34.86,0,0,0-22,32.411v7.162a6,6,0,1,0,12,0v-7.162a22.967,22.967,0,0,1,10-18.841v21.045a6,6,0,0,0,12,0V159.215c0-.019.621-.029,1-.029s0,.01,1,.029v25.153a6,6,0,0,0,12,0V163.323a22.967,22.967,0,0,1,10,18.841v7.162a6,6,0,1,0,12,0v-7.162A34.86,34.86,0,0,0,293,149.753Z"/></svg>
